<svg width="18" height="18" viewBox="0 0 18 18" fill="none" xmlns="http://www.w3.org/2000/svg">
<path d="M9 0C7.26939 0 6.00549 0.0202904 5.2434 0.0602999C4.48399 0.10074 3.81479 0.21551 3.2544 0.4014C2.59104 0.64018 2.00298 1.01202 1.5066 1.5066C1.01202 2.00298 0.64018 2.59103 0.4014 3.2544C0.21551 3.81478 0.10074 4.48399 0.0602999 5.2434C0.0202904 6.00549 0 7.26939 0 9C0 10.7306 0.0202904 11.9945 0.0602999 12.7566C0.10068 13.5158 0.21545 14.185 0.4014 14.7456C0.64067 15.4104 1.01252 15.9984 1.5066 16.4934C2.00174 16.9876 2.58979 17.3459 3.2544 17.5581C3.81145 17.7707 4.48063 17.8991 5.2434 17.9397C5.98856 17.9797 7.25246 18 9 18C10.7475 18 12.0114 17.9797 12.7566 17.9397C13.5191 17.8991 14.1883 17.7844 14.7456 17.5986C15.4118 17.3588 15.9998 16.987 16.4934 16.4934C16.987 15.9998 17.3588 15.4118 17.5986 14.7456C17.7844 14.1883 17.8992 13.5191 17.9397 12.7566C17.9797 12.0114 18 10.7475 18 9C18 7.26406 17.9864 6.00682 17.9595 5.2632C17.9074 4.49237 17.786 3.8165 17.5986 3.2544C17.3593 2.58962 16.9875 2.00157 16.4934 1.5066C15.9984 1.01252 15.4104 0.64068 14.7456 0.4014C14.185 0.21545 13.5158 0.10068 12.7566 0.0602999C11.9945 0.0202904 10.7306 0 9 0ZM9.6426 16.3926H8.3574C7.30231 16.3926 6.46414 16.3793 5.8662 16.353C4.87772 16.2989 4.14766 16.1905 3.6963 16.0308C2.89722 15.7113 2.31586 15.1303 1.9683 14.3037C1.80916 13.8515 1.70107 13.1214 1.647 12.1338C1.62072 11.5368 1.6074 10.6986 1.6074 9.6426V8.3574C1.6074 7.30231 1.62072 6.46414 1.647 5.8662C1.70101 4.85267 1.80911 4.12261 1.9683 3.6963C2.2896 2.87098 2.87098 2.2896 3.6963 1.9683C4.14959 1.8091 4.87964 1.70101 5.8662 1.647C6.46414 1.62072 7.3023 1.6074 8.3574 1.6074H9.6426C10.6986 1.6074 11.5368 1.62072 12.1338 1.647C13.1484 1.70107 13.8784 1.80917 14.3037 1.9683C15.1303 2.28975 15.7113 2.87113 16.0308 3.6963C16.1905 4.12077 16.2989 4.85083 16.353 5.8662C16.3793 6.43606 16.3926 7.27422 16.3926 8.3574V9.6426C16.3926 10.6986 16.3793 11.5368 16.353 12.1338C16.2989 13.1232 16.1905 13.8532 16.0308 14.3037C15.7112 15.104 15.1301 15.6851 14.3037 16.0308C13.8803 16.1905 13.1502 16.2989 12.1338 16.353C11.5639 16.3793 10.7258 16.3926 9.6426 16.3926ZM9 4.3794C8.17467 4.3794 7.39737 4.58894 6.6897 5.0022C5.98311 5.41535 5.41535 5.98311 5.0022 6.6897C4.58894 7.39737 4.3794 8.17467 4.3794 9C4.3794 9.82533 4.58894 10.6026 5.0022 11.3103C5.41456 12.0164 5.98231 12.5842 6.6897 12.9978C7.39737 13.4111 8.17467 13.6206 9 13.6206C9.82533 13.6206 10.6026 13.4111 11.3103 12.9978C12.0172 12.585 12.585 12.0172 12.9978 11.3103C13.4111 10.6026 13.6206 9.82533 13.6206 9C13.6206 8.17467 13.4111 7.39737 12.9978 6.6897C12.5842 5.98231 12.0164 5.41456 11.3103 5.0022C10.6026 4.58894 9.82533 4.3794 9 4.3794ZM13.8213 3.0933C13.5296 3.0933 13.2728 3.2017 13.0581 3.4155C12.8449 3.6287 12.7368 3.88548 12.7368 4.1787C12.7368 4.47192 12.8449 4.7287 13.0581 4.9419C13.2713 5.1551 13.5281 5.2632 13.8213 5.2632C14.1149 5.2632 14.365 5.1551 14.5647 4.9419C14.7648 4.7292 14.8796 4.47243 14.9058 4.1787C14.9058 3.88551 14.7977 3.6287 14.5845 3.4155C14.3707 3.2017 14.1139 3.0933 13.8213 3.0933ZM9 12.0132C8.17347 12.0132 7.45704 11.7158 6.8706 11.1294C6.28415 10.543 5.9868 9.82653 5.9868 9C5.9868 8.17437 6.28415 7.45794 6.8706 6.8706C7.45794 6.28415 8.17437 5.9868 9 5.9868C9.82653 5.9868 10.543 6.28415 11.1294 6.8706C11.7159 7.45704 12.0132 8.17347 12.0132 9C12.0132 9.82743 11.7159 10.5439 11.1294 11.1294C10.5439 11.7158 9.82743 12.0132 9 12.0132Z" fill="white"/>
</svg>
