<svg width="23" height="18" viewBox="0 0 23 18" fill="none" xmlns="http://www.w3.org/2000/svg">
<path d="M0.000372887 15.967L0 15.9681C2.09575 17.316 4.43945 18 6.96559 18C9.60699 18 11.9801 17.316 14.0189 15.9669C15.8853 14.7609 17.3557 13.1157 18.3893 11.0772C19.3938 9.15508 19.9031 7.13144 19.9031 5.0625C19.9031 4.8048 19.8886 4.61554 19.8599 4.5C20.7499 3.84011 21.5213 3.03985 22.1531 2.1204C21.2916 2.4942 20.418 2.74109 19.5575 2.8557C20.5335 2.25308 21.2032 1.40949 21.5474 0.3465C20.656 0.86447 19.6802 1.22804 18.6485 1.4283C18.2166 0.99643 17.7149 0.64709 17.1563 0.3897C16.5951 0.13111 15.9762 0 15.3167 0C14.5145 0 13.7575 0.20379 13.0667 0.6057C12.3778 1.00792 11.8246 1.5684 11.4224 2.2716C11.0205 2.97674 10.8167 3.74102 10.8167 4.5432C10.8167 4.8884 10.8458 5.23783 10.9031 5.5818C9.06522 5.49577 7.31143 5.02967 5.68939 4.1976C4.06762 3.36477 2.67744 2.22926 1.55749 0.8226C1.12746 1.53872 0.908589 2.30304 0.908589 3.0942C0.908589 3.88452 1.09784 4.61972 1.47109 5.2794C1.84354 5.93924 2.33832 6.49246 2.94169 6.9237C2.22392 6.89503 1.54009 6.69063 0.908589 6.318V6.40442C0.908589 7.46694 1.25803 8.42774 1.94719 9.2601C2.63612 10.0924 3.50941 10.6311 4.54279 10.8612C4.13741 10.9479 3.72984 10.9908 3.33139 10.9908C3.07276 10.9908 2.7963 10.9763 2.50969 10.9476C2.7962 11.8367 3.32696 12.5868 4.08829 13.176C4.84933 13.7642 5.74472 14.0625 6.74959 14.0625C5.08391 15.3554 3.17665 16.0101 1.08139 16.0101C0.680073 16.0101 0.316354 15.9956 0.000372887 15.967Z" fill="white"/>
</svg>
